<svg width="650" height="400" xmlns="http://www.w3.org/2000/svg">
  <!-- Background -->
  <rect width="650" height="400" fill="#ffffff"/>
  
  <!-- Chart area background -->
  <rect x="80" y="40" width="520" height="280" fill="#fafafa" stroke="#e0e0e0" stroke-width="1"/>
  
  <!-- Grid lines -->
  <g stroke="#e8e8e8" stroke-width="0.5">
    <line x1="80" y1="96" x2="600" y2="96"/>  <!-- 40% line -->
    <line x1="80" y1="152" x2="600" y2="152"/> <!-- 30% line -->
    <line x1="80" y1="208" x2="600" y2="208"/> <!-- 20% line -->
    <line x1="80" y1="264" x2="600" y2="264"/> <!-- 10% line -->
  </g>
  
  <!-- Axes -->
  <g stroke="#000000" stroke-width="2" fill="none">
    <!-- Y-axis -->
    <line x1="80" y1="40" x2="80" y2="320"/>
    <!-- X-axis -->
    <line x1="80" y1="320" x2="600" y2="320"/>
  </g>
  
  <!-- Y-axis labels -->
  <g font-family="Times New Roman" font-size="12" fill="#333333" text-anchor="end">
    <text x="75" y="325">0%</text>
    <text x="75" y="269">10%</text>
    <text x="75" y="213">20%</text>
    <text x="75" y="157">30%</text>
    <text x="75" y="101">40%</text>
    <text x="75" y="45">50%</text>
  </g>
  
  <!-- Bars with gradient -->
  <defs>
    <linearGradient id="barGradient" x1="0%" y1="0%" x2="0%" y2="100%">
      <stop offset="0%" style="stop-color:#3498db;stop-opacity:1" />
      <stop offset="100%" style="stop-color:#2980b9;stop-opacity:1" />
    </linearGradient>
  </defs>
  
  <!-- Bar 1: Under 45 (47%) -->
  <rect x="110" y="57.4" width="80" height="262.6" fill="url(#barGradient)" stroke="#2980b9" stroke-width="1"/>
  
  <!-- Bar 2: 45-54 (31%) -->
  <rect x="220" y="146.8" width="80" height="173.2" fill="url(#barGradient)" stroke="#2980b9" stroke-width="1"/>
  
  <!-- Bar 3: 55-64 (22%) -->
  <rect x="330" y="196.4" width="80" height="123.6" fill="url(#barGradient)" stroke="#2980b9" stroke-width="1"/>
  
  <!-- Bar 4: 65+ (12%) -->
  <rect x="440" y="252.8" width="80" height="67.2" fill="url(#barGradient)" stroke="#2980b9" stroke-width="1"/>
  
  <!-- Bar value labels -->
  <g font-family="Times New Roman" font-size="14" font-weight="bold" fill="#2c3e50" text-anchor="middle">
    <text x="150" y="50">47%</text>
    <text x="260" y="140">31%</text>
    <text x="370" y="190">22%</text>
    <text x="480" y="246">12%</text>
  </g>
  
  <!-- X-axis category labels -->
  <g font-family="Times New Roman" font-size="12" fill="#2c3e50" text-anchor="middle">
    <text x="150" y="340">Under 45</text>
    <text x="150" y="355">(n=127)</text>
    <text x="260" y="340">45-54</text>
    <text x="260" y="355">(n=189)</text>
    <text x="370" y="340">55-64</text>
    <text x="370" y="355">(n=164)</text>
    <text x="480" y="340">65+</text>
    <text x="480" y="355">(n=67)</text>
  </g>
  
  <!-- Axis titles -->
  <g font-family="Times New Roman" font-size="14" font-weight="bold" fill="#2c3e50">
    <!-- Y-axis title (rotated) -->
    <text x="25" y="180" text-anchor="middle" transform="rotate(-90, 25, 180)">AI Adoption Rate (%)</text>
    <!-- X-axis title -->
    <text x="340" y="385" text-anchor="middle">CEO Age Categories</text>
  </g>
  
  <!-- Trend line to show decline -->
  <g stroke="#e74c3c" stroke-width="2" fill="none" stroke-dasharray="5,5" opacity="0.7">
    <line x1="150" y1="57" x2="480" y2="253"/>
  </g>
  
  <!-- Statistical annotations -->
  <g font-family="Times New Roman" font-size="10" fill="#7f8c8d">
    <text x="520" y="80">Strong negative</text>
    <text x="520" y="95">correlation</text>
    <text x="520" y="110">p &lt; 0.001</text>
  </g>
  
  <!-- Key finding box -->
  <rect x="450" y="120" width="145" height="60" fill="#e8f4f8" stroke="#3498db" stroke-width="1" rx="3"/>
  <g font-family="Times New Roman" font-size="9" fill="#2c3e50">
    <text x="455" y="135" font-weight="bold">Key Finding:</text>
    <text x="455" y="150">4× difference between</text>
    <text x="455" y="162">youngest and oldest</text>
    <text x="455" y="174">CEO categories</text>
  </g>
</svg>