<svg width="700" height="500" xmlns="http://www.w3.org/2000/svg">
  <defs>
    <style>
      .figure { font-family: 'Times New Roman', serif; }
      .title { font-size: 14px; font-weight: bold; text-anchor: middle; }
      .axis-label { font-size: 12px; text-anchor: middle; }
      .tick-label { font-size: 10px; text-anchor: middle; }
      .notes { font-size: 10px; }
      .legend { font-size: 11px; }
    </style>
  </defs>
  
  <!-- White background -->
  <rect width="700" height="500" fill="white"/>
  
  <!-- Title -->
  <text x="350" y="30" class="title">Figure 3: Evolution of AI Adoption and Productivity Effects Over Time</text>
  
  <!-- Y-axis (left) -->
  <line x1="80" y1="380" x2="80" y2="80" stroke="#000" stroke-width="1"/>
  <text x="25" y="230" class="axis-label" transform="rotate(-90, 25, 230)">AI Adoption Rate (%)</text>
  
  <!-- Y-axis ticks (left) -->
  <line x1="75" y1="380" x2="85" y2="380" stroke="#000"/>
  <text x="70" y="385" class="tick-label" text-anchor="end">0</text>
  <line x1="75" y1="320" x2="85" y2="320" stroke="#000"/>
  <text x="70" y="325" class="tick-label" text-anchor="end">10</text>
  <line x1="75" y1="260" x2="85" y2="260" stroke="#000"/>
  <text x="70" y="265" class="tick-label" text-anchor="end">20</text>
  <line x1="75" y1="200" x2="85" y2="200" stroke="#000"/>
  <text x="70" y="205" class="tick-label" text-anchor="end">30</text>
  <line x1="75" y1="140" x2="85" y2="140" stroke="#000"/>
  <text x="70" y="145" class="tick-label" text-anchor="end">40</text>
  
  <!-- Y-axis (right) -->
  <line x1="620" y1="380" x2="620" y2="80" stroke="#000" stroke-width="1"/>
  <text x="675" y="230" class="axis-label" transform="rotate(90, 675, 230)">Productivity Premium (%)</text>
  
  <!-- Y-axis ticks (right) -->
  <line x1="615" y1="380" x2="625" y2="380" stroke="#000"/>
  <text x="630" y="385" class="tick-label" text-anchor="start">0</text>
  <line x1="615" y1="320" x2="625" y2="320" stroke="#000"/>
  <text x="630" y="325" class="tick-label" text-anchor="start">1</text>
  <line x1="615" y1="260" x2="625" y2="260" stroke="#000"/>
  <text x="630" y="265" class="tick-label" text-anchor="start">2</text>
  <line x1="615" y1="200" x2="625" y2="200" stroke="#000"/>
  <text x="630" y="205" class="tick-label" text-anchor="start">3</text>
  
  <!-- X-axis -->
  <line x1="80" y1="380" x2="620" y2="380" stroke="#000" stroke-width="1"/>
  <text x="350" y="420" class="axis-label">Year</text>
  
  <!-- X-axis ticks -->
  <line x1="170" y1="375" x2="170" y2="385" stroke="#000"/>
  <text x="170" y="400" class="tick-label">2018</text>
  <line x1="260" y1="375" x2="260" y2="385" stroke="#000"/>
  <text x="260" y="400" class="tick-label">2019</text>
  <line x1="350" y1="375" x2="350" y2="385" stroke="#000"/>
  <text x="350" y="400" class="tick-label">2020</text>
  <line x1="440" y1="375" x2="440" y2="385" stroke="#000"/>
  <text x="440" y="400" class="tick-label">2021</text>
  <line x1="530" y1="375" x2="530" y2="385" stroke="#000"/>
  <text x="530" y="400" class="tick-label">2022</text>
  <line x1="620" y1="375" x2="620" y2="385" stroke="#000"/>
  <text x="620" y="400" class="tick-label">2023</text>
  
  <!-- AI Adoption line (blue) -->
  <polyline points="170,356 260,308 350,290 440,248 530,212 620,170" 
            fill="none" stroke="#3b82f6" stroke-width="3"/>
  
  <!-- Productivity line (red) -->
  <polyline points="170,344 260,326 350,260 440,260 530,260 620,260" 
            fill="none" stroke="#ef4444" stroke-width="3"/>
  
  <!-- Data points -->
  <circle cx="170" cy="356" r="4" fill="#3b82f6" stroke="#000" stroke-width="1"/>
  <circle cx="260" cy="308" r="4" fill="#3b82f6" stroke="#000" stroke-width="1"/>
  <circle cx="350" cy="290" r="4" fill="#3b82f6" stroke="#000" stroke-width="1"/>
  <circle cx="440" cy="248" r="4" fill="#3b82f6" stroke="#000" stroke-width="1"/>
  <circle cx="530" cy="212" r="4" fill="#3b82f6" stroke="#000" stroke-width="1"/>
  <circle cx="620" cy="170" r="4" fill="#3b82f6" stroke="#000" stroke-width="1"/>
  
  <circle cx="170" cy="344" r="4" fill="#ef4444" stroke="#000" stroke-width="1"/>
  <circle cx="260" cy="326" r="4" fill="#ef4444" stroke="#000" stroke-width="1"/>
  <circle cx="350" cy="260" r="4" fill="#ef4444" stroke="#000" stroke-width="1"/>
  <circle cx="440" cy="260" r="4" fill="#ef4444" stroke="#000" stroke-width="1"/>
  <circle cx="530" cy="260" r="4" fill="#ef4444" stroke="#000" stroke-width="1"/>
  <circle cx="620" cy="260" r="4" fill="#ef4444" stroke="#000" stroke-width="1"/>
  
  <!-- Legend -->
  <g transform="translate(200,100)">
    <line x1="0" y1="0" x2="20" y2="0" stroke="#3b82f6" stroke-width="3"/>
    <circle cx="10" cy="0" r="3" fill="#3b82f6"/>
    <text x="30" y="5" class="legend">AI Adoption Rate (%)</text>
    
    <line x1="0" y1="20" x2="20" y2="20" stroke="#ef4444" stroke-width="3"/>
    <circle cx="10" cy="20" r="3" fill="#ef4444"/>
    <text x="30" y="25" class="legend">Productivity Premium (%)</text>
  </g>
  
  <!-- Notes -->
  <text x="80" y="450" class="notes">Notes: AI adoption rate shows percentage of firms with AI investment. Productivity premium</text>
  <text x="80" y="465" class="notes">shows TFP advantage of AI adopters vs non-adopters. Sample: 547 firms, 2018-2023.</text>
</svg>