<svg width="600" height="500" xmlns="http://www.w3.org/2000/svg">
  <defs>
    <style>
      .figure { font-family: 'Times New Roman', serif; }
      .axis-label { font-size: 12px; text-anchor: middle; }
      .tick-label { font-size: 10px; text-anchor: middle; }
      .bar { stroke: #000; stroke-width: 1; }
      .notes { font-size: 10px; }
    </style>
  </defs>
  
  <!-- White background -->
  <rect width="600" height="500" fill="white"/>
  
  <!-- Bars -->
  <rect x="80" y="380" width="80" height="20" fill="#94a3b8" class="bar"/>
  <rect x="180" y="315" width="80" height="85" fill="#3b82f6" class="bar"/>
  <rect x="280" y="270" width="80" height="130" fill="#1d4ed8" class="bar"/>
  <rect x="380" y="200" width="80" height="200" fill="#10b981" class="bar"/>
  
  <!-- Y-axis -->
  <line x1="50" y1="420" x2="50" y2="150" stroke="#000" stroke-width="1"/>
  <text x="25" y="285" class="axis-label" transform="rotate(-90, 25, 285)">GDP Impact (¥ Trillion)</text>
  
  <!-- Y-axis ticks -->
  <line x1="45" y1="400" x2="55" y2="400" stroke="#000"/>
  <text x="40" y="405" class="tick-label" text-anchor="end">0</text>
  <line x1="45" y1="350" x2="55" y2="350" stroke="#000"/>
  <text x="40" y="355" class="tick-label" text-anchor="end">0.25</text>
  <line x1="45" y1="300" x2="55" y2="300" stroke="#000"/>
  <text x="40" y="305" class="tick-label" text-anchor="end">0.5</text>
  <line x1="45" y1="250" x2="55" y2="250" stroke="#000"/>
  <text x="40" y="255" class="tick-label" text-anchor="end">0.75</text>
  <line x1="45" y1="200" x2="55" y2="200" stroke="#000"/>
  <text x="40" y="205" class="tick-label" text-anchor="end">1.0</text>
  <line x1="45" y1="150" x2="55" y2="150" stroke="#000"/>
  <text x="40" y="155" class="tick-label" text-anchor="end">1.25</text>
  
  <!-- X-axis -->
  <line x1="50" y1="400" x2="500" y2="400" stroke="#000" stroke-width="1"/>
  <text x="275" y="440" class="axis-label">AI Adoption Scenario</text>
  
  <!-- X-axis labels -->
  <text x="120" y="420" class="tick-label">Current</text>
  <text x="120" y="435" class="tick-label">(15%)</text>
  <text x="220" y="420" class="tick-label">Medium</text>
  <text x="220" y="435" class="tick-label">(50%)</text>
  <text x="320" y="420" class="tick-label">High</text>
  <text x="320" y="435" class="tick-label">(75%)</text>
  <text x="420" y="420" class="tick-label">Universal</text>
  <text x="420" y="435" class="tick-label">(90%)</text>
  
  <!-- Value labels -->
  <text x="120" y="370" class="tick-label">¥0.17T</text>
  <text x="220" y="305" class="tick-label">¥0.58T</text>
  <text x="320" y="260" class="tick-label">¥0.86T</text>
  <text x="420" y="190" class="tick-label">¥1.15T</text>
  
  <!-- Notes -->
  <text x="50" y="470" class="notes">Notes: GDP impact calculated using 2.4% firm-level productivity effect scaled by adoption rates.</text>
  <text x="50" y="485" class="notes">Current Japanese GDP ≈ ¥540 trillion. Universal adoption could add 0.2% to annual GDP growth.</text>
</svg>